<?xml version="1.0" encoding="UTF-8"?>
<svg width="140px" height="44px" viewBox="0 0 140 44" version="1.1" xmlns="http://www.w3.org/2000/svg" xmlns:xlink="http://www.w3.org/1999/xlink">
    <!-- Generator: Sketch 59.1 (86144) - https://sketch.com -->
    <title>Artboard</title>
    <desc>Created with Sketch.</desc>
    <g id="Artboard" stroke="none" stroke-width="1" fill="none" fill-rule="evenodd">
        <g id="tigo-brand-b2b" transform="translate(0.000000, 7.000000)" fill-rule="nonzero">
            <path d="M0.945054946,4.95403358 C1.37978022,4.44307944 1.94681318,4.04954955 2.46344322,4.04954955 L3.216337,4.04954955 L3.216337,7.01054463 L7.71794871,7.01054463 L7.71794871,8.34981573 C7.71794871,9.03214579 7.1225641,9.9017199 5.7774359,9.9017199 L3.216337,9.9017199 L3.216337,15.0239557 C3.216337,16.7218468 3.95978022,17.3914824 5.24505495,17.3914824 C6.29091576,17.3914824 7.10051282,17.2423218 7.60454212,16.9217855 L7.71794871,16.9217855 L7.71794871,18.0896806 C7.71794871,19.4130835 6.75399267,20.2699966 4.88278388,20.2699966 C1.59399267,20.2763104 0,18.4800369 0,15.4111384 L0,7.54371417 C0,6.2742629 0.239413919,5.77282964 0.945054946,4.95403358 L0.945054946,4.95403358 Z M11.6556777,6.0933661 C12.6984855,6.08326696 13.5442887,5.23960555 13.5646887,4.18918919 C13.5560316,3.13374119 12.7033629,2.28323165 11.6556777,2.28500671 C10.6179551,2.29372463 9.7813187,3.14370718 9.7813187,4.18918919 C9.7813187,5.23467119 10.6179551,6.08465374 11.6556777,6.0933661 L11.6556777,6.0933661 Z M13.9553113,20.254095 C15.3193406,20.254095 15.8674726,19.6891892 15.8674726,18.2864455 L15.8674726,17.5787264 L15.2689378,17.5787264 C13.8482051,17.5787264 13.2906228,17.1693284 13.2906228,15.8522727 L13.2906228,9.73351761 C13.2906228,8.08957821 12.4148718,7.30569205 10.9846887,7.30569205 L10.0553846,7.30569205 L10.0553846,16.1855037 C10.0553846,18.8354832 11.4288645,20.2699631 13.9553113,20.2699631 L13.9553113,20.254095 Z M39.6450549,13.8306716 C39.6450549,11.2029074 38.7,9.64782964 36.5641758,9.64782964 C34.7118682,9.64782964 33.7605129,11.2029074 33.7605129,13.3800163 C33.7605129,15.9792179 34.7055678,17.5247748 36.8413919,17.5247748 C38.7315018,17.5247748 39.6450549,15.9792179 39.6450549,13.8306716 L39.6450549,13.8306716 Z M30.4118682,13.8306716 C30.4118682,9.89537265 32.6547986,6.7471335 36.8413919,6.7471335 C40.7476191,6.7471335 43,9.89537265 43,13.3800163 C43,17.2962736 40.7476191,20.4381654 36.5641758,20.4381654 C32.6547986,20.4381654 30.4118682,17.2962736 30.4118682,13.8306716 L30.4118682,13.8306716 Z M31.0419048,5.3507371 L31.1112088,5.3507371 C32.16337,3.8527846 34.2235897,2.59285422 37.0335531,2.59285422 C39.6261539,2.59285422 41.3934066,3.83691647 42.6503297,5.36025798 L42.7038828,5.36025798 L42.7038828,3.96703522 C42.681764,3.42544541 42.511712,2.90051061 42.2124542,2.45004095 C41.1949451,1.12346437 39.1567765,0 36.7689378,0 C34.3810989,0 32.1570696,1.42813268 31.4734799,2.53890254 C31.2200418,2.95486382 31.0698429,3.42623197 31.0356044,3.91308353 L31.0419048,5.3507371 Z M38.0195604,22.7803031 L37.9313553,22.7803031 C36.3562638,25.2684275 33.2564835,27.3852375 28.9974359,27.3852375 C25.0912088,27.3852375 22.4261539,25.2938166 20.536044,22.7676085 L20.4383883,22.7676085 L20.4383883,24.4052006 C20.4776066,25.2920375 20.7387647,26.154487 21.1975824,26.912367 C22.7002198,29.1339066 25.7716484,31 29.3880586,31 C33.0044689,31 36.343663,28.6261261 37.3769231,26.76638 C37.7428619,26.0584617 37.9574864,25.2811441 38.0069597,24.4845413 L38.0195604,22.7803031 Z M27.1356777,13.7862408 L25.4188279,13.7862408 L25.4786813,14.1036036 C25.6211528,14.7097546 25.6909552,15.3309314 25.6865934,15.9538288 L25.6865934,17.0074734 C25.6865934,17.5247748 25.5731868,18.000819 24.269011,18.000819 C22.3789011,18.000819 20.1296703,17.232801 20.1296703,13.6370802 C20.1296703,11.3584152 21.8969231,9.68908686 24.2973627,9.68908686 C25.8315018,9.68908686 27.2711355,10.1048321 28.0933334,10.745905 L28.1531868,10.7935094 L28.5784615,10.7935094 L28.5784615,9.65100327 C28.5784615,8.27682228 27.3435897,6.82330057 24.6344322,6.82330057 C20.0162638,6.82330057 16.7936263,9.77160111 16.7936263,13.9893529 C16.7936263,18.4895578 20.4005861,20.834869 23.9571429,20.834869 C27.2175824,20.834869 28.7989744,19.6796683 28.7989744,17.3216626 L28.7989744,15.2334152 C28.7989744,14.4876126 28.0051282,13.7830672 27.1356777,13.7830672 L27.1356777,13.7862408 Z" id="Shape" fill="#00377D"></path>
            <path d="M52.471425,18.9449423 C53.1769179,19.2149857 53.9268366,19.3485723 54.6816943,19.3386683 C57.105347,19.3386683 59.5385541,17.6517285 59.5385541,14.0953905 C59.5385541,11.1952625 57.818748,9.54673496 55.3982802,9.54673496 C54.3548709,9.57721435 53.3404298,9.89861017 52.4682402,10.475032 L52.471425,18.9449423 Z M50.1146538,4.58834827 C50.1316258,3.52006442 50.0933563,2.45161577 50,1.38732395 C50.6778694,1.18556889 51.3749048,1.05575227 52.0796914,1 C52.398174,1 52.4873491,1.14724712 52.4873491,2.89180537 L52.4873491,8.82970548 C53.442797,8.33034571 54.7167274,7.66453265 56.3569129,7.66453265 C59.0162426,7.66453265 62.0641211,9.52112678 62.0641211,13.8425096 C62.0641211,16.9731114 60.4717081,18.7784891 59.0003185,19.7516005 C57.6117343,20.6670935 55.786829,21 54.4460172,21 C53.1412419,20.9882297 51.8482978,20.7499843 50.6242259,20.2957746 C50.2802647,20.1421255 50.146502,19.9564661 50.146502,19.4539052 L50.1146538,4.58834827 Z M64.9686826,11.3745198 C64.9686826,9.60115235 64.9113557,8.73367477 64.8540288,8.11587708 C65.5266628,7.93548623 66.2185659,7.83767571 66.9146113,7.82458387 C67.2044305,7.82458387 67.3063449,7.97183098 67.3063449,9.61075548 C67.3254538,11.53137 67.3254538,13.6248399 67.3254538,15.4910371 C67.3254538,18.6056338 68.7522559,19.0121639 69.9879685,19.0121639 C71.3765526,19.0121639 72.6632224,17.9814341 73.1727945,17.2099872 L73.1727945,8.96094748 C73.1727945,8.25672215 73.2587848,8.11267605 73.621855,8.00064021 C74.2823259,7.89174571 74.949603,7.82970597 75.6187409,7.81498079 C75.6187409,8.45518566 75.5327506,10.4878361 75.5327506,12.9974392 L75.5327506,17.5973111 C75.5327506,19.021767 76.1856399,19.3034571 76.9595527,19.4314981 L76.9595527,19.9116517 C76.8130507,20.337388 76.3225875,20.9871959 75.7238402,20.9871959 C74.5499657,20.9978787 73.5620552,20.1063202 73.4466896,18.9321383 C72.7832123,19.6397817 71.9921102,20.2144012 71.1153969,20.6254802 C70.5321205,20.8725736 69.9042949,20.9957257 69.2713826,20.9871959 C66.3636364,20.9871959 64.9814218,19.2010243 64.9814218,16.3553137 L64.9686826,11.3745198 Z M83.399271,7.65172856 C84.9630206,7.65172856 85.8993595,8.29193342 86.1286669,8.56081946 C86.1397633,8.972054 86.0191918,9.37600313 85.7847057,9.71318826 C85.6025716,9.95730243 85.2589223,10.0086838 85.0139778,9.82842513 C84.4539082,9.53147374 83.8285963,9.38067965 83.1954422,9.38988478 C82.7342858,9.3747993 82.2872882,9.55118939 81.959526,9.87759087 C81.6317637,10.2039923 81.4521463,10.6516155 81.4628968,11.1152369 C81.4628968,11.6818182 81.7176828,12.0755442 82.3259846,12.450064 C82.7909693,12.7701664 84.5139602,13.6632523 85.3897874,14.2650448 C86.5172162,15.0044814 86.9822003,15.9551857 86.9822003,17.0051217 C86.9822003,19.7291933 84.5840264,20.9935979 82.300506,20.9935979 C80.708093,20.9935979 79.1984855,20.3854033 78.6666195,19.7131883 C78.6588788,19.2725147 78.8143895,18.8446817 79.1029407,18.5128041 C79.3226937,18.3079385 79.5997735,18.359155 79.9469196,18.5576184 C80.7160031,19.0123868 81.592927,19.2501503 82.4852259,19.2458387 C83.7782654,19.2458387 84.6477228,18.4199744 84.6477228,17.3764404 C84.6477228,16.6722151 84.2432499,16.2112676 83.2463994,15.6574904 C82.4565625,15.215749 81.2909162,14.553137 80.7654198,14.2010243 C79.7745345,13.6262611 79.1721067,12.5562323 79.1921158,11.4065301 C79.1921158,9.10819461 81.1348597,7.65172856 83.380162,7.65172856 L83.399271,7.65172856 Z M89.6510845,11.3873239 C89.6510845,9.61075548 89.593758,8.73367477 89.5364306,8.11587708 C90.2131613,7.93972676 90.907726,7.8419932 91.6065682,7.82458387 C91.8963872,7.82458387 92.0078557,7.97183098 92.0078557,9.61075548 L92.0078557,19.953265 C92.0078557,20.475032 91.8549846,20.6190781 91.4282176,20.6862997 C90.810757,20.7723045 90.1884304,20.818281 89.5650947,20.8239437 C89.593758,19.6523688 89.6510845,17.975032 89.6510845,16.2880922 L89.6510845,11.3873239 Z M90.8931667,1.46414853 C91.6575246,1.46414853 92.1384336,2.07234315 92.1384336,2.83418694 C92.1548733,3.20659879 92.0199702,3.56972575 91.7647086,3.84017053 C91.5094469,4.11061532 91.1557616,4.26513641 90.7848829,4.26824583 C90.4216896,4.28750258 90.0681246,4.14702526 89.8162008,3.88337293 C89.5642778,3.61972059 89.4389138,3.25897013 89.4727339,2.8950064 C89.4641294,2.5182301 89.6074977,2.15397149 89.8702302,1.88507957 C90.1329627,1.61618764 90.4927238,1.46552152 90.8676881,1.46734955 L90.8931667,1.46414853 Z M104.364981,12.7957746 C104.364981,10.5134443 103.409533,9.59475035 101.794826,9.59475035 C100.27885,9.59475035 99.0112888,10.7855314 98.3998019,11.7202304 L98.3998019,19.9820743 C98.3998019,20.5614597 98.2883326,20.6670935 97.8106091,20.7183098 C97.1947919,20.7821438 96.5761233,20.8141962 95.9570401,20.8143406 C96.0143675,19.818822 96.0430308,18.099872 96.0430308,15.478233 L96.0430308,10.6446863 C96.0430308,9.68437904 95.7755049,9.2458387 95.3742174,9.04417417 L95.3742174,8.65044814 C95.6290758,8.28281125 95.9537949,7.96949553 96.3296652,7.72855314 C96.5553878,7.68142474 96.7890416,7.68910648 97.0112179,7.7509603 C97.7946852,7.92381562 98.2055274,8.86491678 98.285148,9.85083226 C98.891176,9.18006183 99.5996551,8.61061227 100.383949,8.16389244 C101.015817,7.82755611 101.719968,7.65172856 102.434976,7.65172856 C105.705793,7.65172856 106.712198,9.89244557 106.712198,12.6165173 L106.712198,17.0019206 C106.712198,18.6952625 106.779079,19.8828425 106.839591,20.5806658 C106.148153,20.7131543 105.447493,20.7912823 104.743975,20.8143406 C104.425493,20.8143406 104.326763,20.6766965 104.326763,20.4078105 L104.364981,12.7957746 Z M115.231608,9.2458387 C113.769773,9.2458387 112.387558,10.6222791 112.17099,12.8950064 C114.295269,12.9622279 116.811281,12.9142125 117.327223,12.8950064 C117.48903,12.8994645 117.645533,12.8368197 117.759991,12.7217805 C117.874448,12.6067412 117.936776,12.4494408 117.93234,12.2868117 C117.970558,10.5102433 117.005556,9.2458387 115.260271,9.2458387 L115.231608,9.2458387 Z M119.48972,18.8489117 C119.374703,19.5806042 118.932174,20.218867 118.28904,20.5806658 C117.512323,20.8632463 116.69137,21.0031169 115.865388,20.9935979 C114.429031,20.9935979 112.737889,20.6959027 111.406631,19.421895 C110.25054,18.3207426 109.635868,16.4673496 109.635868,14.556338 C109.635868,10.9071703 111.817474,7.6581306 115.585124,7.6581306 C118.871864,7.6581306 120.231785,10.0396927 120.317775,12.4372599 C120.323955,12.7473042 120.299417,13.057197 120.244524,13.3623559 C120.158533,13.8361076 118.725362,14.2810499 117.773099,14.4346991 C116.989632,14.5275288 114.17743,14.5755442 112.056336,14.5019206 C112.056336,17.446863 113.887611,19.1370038 116.499168,19.1370038 C117.479798,19.1511576 118.453655,18.971709 119.365512,18.6088349 L119.48972,18.8489117 Z M126.595067,7.6453265 C128.158817,7.6453265 129.095155,8.28553137 129.324463,8.55441742 C129.337177,8.96638017 129.217701,9.37152643 128.983687,9.70998722 C128.801553,9.95410139 128.457903,10.0054828 128.212959,9.82522409 C127.65165,9.52886122 127.025192,9.37915583 126.391238,9.38988478 C125.929538,9.37389878 125.481698,9.54989026 125.15323,9.87639383 C124.824763,10.2028974 124.644715,10.6510407 124.655508,11.1152369 C124.655508,11.6818182 124.913479,12.0755442 125.52178,12.450064 C125.986765,12.7701664 127.709756,13.6632523 128.585583,14.2650448 C129.709827,15.0044814 130.177996,15.9551857 130.177996,17.0051217 C130.177996,19.7291933 127.776638,20.9935979 125.489933,20.9935979 C123.897519,20.9935979 122.391097,20.3854033 121.85923,19.7131883 C121.845088,19.2656846 122.00111,18.8295763 122.295552,18.4935979 C122.51212,18.2887324 122.786015,18.3399488 123.136346,18.5384123 C123.898818,18.99728 124.770033,19.2416205 125.658728,19.2458387 C126.951768,19.2458387 127.82441,18.4199744 127.82441,17.3764404 C127.82441,16.6722151 127.419937,16.2112676 126.423086,15.6574904 C125.630064,15.215749 124.470788,14.553137 123.942107,14.2010243 C122.951945,13.625937 122.350643,12.5557403 122.371987,11.4065301 C122.371987,9.10819461 124.308362,7.65172856 126.556849,7.65172856 L126.595067,7.6453265 Z M136.417071,7.6453265 C137.980821,7.6453265 138.917159,8.28553137 139.146467,8.55441742 C139.157563,8.96565191 139.036991,9.36960113 138.802505,9.70678617 C138.620371,9.95090043 138.276722,10.0022818 138.031778,9.82202304 C137.47113,9.52729296 136.845849,9.37870765 136.213242,9.38988478 C135.752086,9.3747993 135.305088,9.55118939 134.977326,9.87759087 C134.649563,10.2039923 134.469946,10.6516155 134.480696,11.1152369 C134.480696,11.6818182 134.735483,12.0755442 135.343784,12.450064 C135.808769,12.7701664 137.53176,13.6632523 138.407587,14.2650448 C139.53183,15.0044814 140,15.9551857 140,17.0051217 C140,19.7291933 137.598641,20.9935979 135.315121,20.9935979 C133.722708,20.9935979 132.2131,20.3854033 131.681234,19.7131883 C131.672826,19.2718297 131.82969,18.8434014 132.120741,18.5128041 C132.337308,18.3079385 132.614388,18.359155 132.961534,18.5576184 C133.724998,19.0168932 134.597346,19.261243 135.487101,19.2650448 C136.780141,19.2650448 137.649598,18.4391805 137.649598,17.3956466 C137.649598,16.6914212 137.248311,16.2304737 136.248275,15.6766965 C135.458438,15.2349552 134.292792,14.5723431 133.767296,14.2202304 C132.778138,13.6441446 132.1772,12.5745979 132.197177,11.4257363 C132.197177,9.12740078 134.133551,7.6709347 136.385223,7.6709347 L136.417071,7.6453265 Z" id="Shape" fill="#808184"></path>
        </g>
    </g>
</svg>